<svg width="93" height="93" viewBox="0 0 93 93" fill="none" xmlns="http://www.w3.org/2000/svg">
<path d="M40.8507 5.26129C44.1167 2.28096 49.1158 2.28096 52.3818 5.26129L55.4353 8.04767C57.2552 9.70846 59.703 10.5038 62.1515 10.2299L66.2596 9.77047C70.6537 9.27903 74.6981 12.2175 75.5885 16.5483L76.421 20.5973C76.9172 23.0107 78.43 25.0928 80.5719 26.3105L84.1655 28.3535C88.0092 30.5386 89.554 35.2931 87.7288 39.3202L86.0224 43.0853C85.0053 45.3294 85.0053 47.9031 86.0224 50.1472L87.7288 53.9122C89.554 57.9394 88.0092 62.6938 84.1655 64.879L80.5719 66.922C78.43 68.1397 76.9172 70.2218 76.421 72.6352L75.5885 76.6842C74.6981 81.015 70.6537 83.9535 66.2596 83.462L62.1516 83.0026C59.703 82.7287 57.2552 83.524 55.4353 85.1848L52.3818 87.9712C49.1158 90.9515 44.1167 90.9515 40.8507 87.9712L37.7972 85.1848C35.9773 83.524 33.5295 82.7287 31.0809 83.0026L26.9729 83.462C22.5788 83.9535 18.5344 81.015 17.644 76.6842L16.8115 72.6352C16.3153 70.2218 14.8025 68.1397 12.6606 66.922L9.06701 64.879C5.2233 62.6938 3.67847 57.9394 5.50369 53.9122L7.21013 50.1472C8.22723 47.9031 8.22723 45.3294 7.21013 43.0853L5.50369 39.3203C3.67847 35.2931 5.2233 30.5386 9.06701 28.3535L12.6606 26.3105C14.8025 25.0928 16.3153 23.0107 16.8115 20.5973L17.644 16.5483C18.5344 12.2175 22.5788 9.27903 26.9729 9.77047L31.0809 10.2299C33.5295 10.5038 35.9773 9.70846 37.7972 8.04767L40.8507 5.26129Z" fill="#EFFE09"/>
<path d="M34.3644 36.261C33.5966 36.261 32.9214 36.4861 32.3389 36.9362C31.7829 37.3598 31.5049 38.1144 31.5049 39.1999V41.7417H35.9928V45.753H31.5049V61.0831H26.8582V45.753H23.4824V41.7417H26.8582V39.0808C26.8582 36.9362 27.4804 35.2416 28.7248 33.9972C29.9693 32.7528 31.5976 32.1306 33.6098 32.1306C34.6954 32.1306 35.5029 32.263 36.0325 32.5278V36.4596C35.5824 36.3272 35.0263 36.261 34.3644 36.261Z" fill="black"/>
<path d="M42.4934 52.9747C42.772 52.7205 43.1983 52.7205 43.4769 52.9747L43.8132 53.2816C43.9684 53.4232 44.1771 53.4911 44.386 53.4677L44.8384 53.4171C45.2132 53.3752 45.5581 53.6258 45.634 53.9952L45.7257 54.4411C45.7681 54.6469 45.8971 54.8245 46.0797 54.9284L46.4755 55.1534C46.8034 55.3397 46.9351 55.7452 46.7794 56.0887L46.5915 56.5034C46.5048 56.6947 46.5048 56.9142 46.5915 57.1056L46.7794 57.5203C46.9351 57.8638 46.8034 58.2692 46.4755 58.4556L46.0797 58.6806C45.8971 58.7845 45.7681 58.962 45.7257 59.1679L45.634 59.6138C45.5581 59.9832 45.2132 60.2338 44.8384 60.1919L44.386 60.1413C44.1771 60.1179 43.9684 60.1857 43.8132 60.3274L43.4769 60.6343C43.1983 60.8884 42.772 60.8884 42.4934 60.6343L42.1571 60.3274C42.0019 60.1857 41.7932 60.1179 41.5843 60.1413L41.1319 60.1919C40.7571 60.2338 40.4122 59.9832 40.3363 59.6138L40.2446 59.1679C40.2022 58.962 40.0732 58.7845 39.8906 58.6806L39.4948 58.4556C39.167 58.2692 39.0352 57.8638 39.1909 57.5203L39.3788 57.1056C39.4656 56.9142 39.4656 56.6947 39.3788 56.5034L39.1909 56.0887C39.0352 55.7452 39.167 55.3397 39.4948 55.1534L39.8906 54.9284C40.0732 54.8245 40.2022 54.6469 40.2446 54.4411L40.3363 53.9952C40.4122 53.6258 40.7571 53.3752 41.1319 53.4171L41.5843 53.4677C41.7932 53.4911 42.0019 53.4232 42.1571 53.2816L42.4934 52.9747Z" fill="black"/>
<path d="M54.545 50.8762C54.545 52.7296 55.0216 54.2255 55.9747 55.364C56.9279 56.476 58.1855 57.0321 59.7477 57.0321C61.2569 57.0321 62.488 56.4628 63.4412 55.3243C64.3944 54.1858 64.871 52.6898 64.871 50.8365C64.871 49.0096 64.4076 47.5533 63.4809 46.4678C62.5542 45.3822 61.323 44.8394 59.7874 44.8394C58.2517 44.8394 56.9941 45.3955 56.0144 46.5075C55.0348 47.593 54.545 49.0493 54.545 50.8762ZM69.3191 31.8525V57.0718C69.3191 58.3691 69.3853 59.5474 69.5176 60.6064H65.1092C64.9769 59.8651 64.9107 59.0311 64.9107 58.1044C64.4341 58.9781 63.6927 59.693 62.6866 60.249C61.6805 60.805 60.5287 61.083 59.2314 61.083C56.4778 61.083 54.2405 60.1166 52.5195 58.1838C50.7985 56.251 49.938 53.8151 49.938 50.8762C49.938 48.0432 50.7985 45.647 52.5195 43.6877C54.267 41.7284 56.4778 40.7488 59.1519 40.7488C60.6876 40.7488 61.9188 41.0268 62.8455 41.5828C63.7986 42.1388 64.4606 42.7875 64.8312 43.5288V31.8525H69.3191Z" fill="black"/>
</svg>
