<svg width="193" height="22" viewBox="0 0 193 22" fill="none" xmlns="http://www.w3.org/2000/svg">
<path d="M8.00005 12.2V9.79995H5.60005V12.2H3.80005V14.6H3.20005V7.39995H3.80005V4.99995H1.40005V7.39995H0.800049V14.6H2.00005V17H4.40005V14.6H6.80005V17H9.20005V14.6H8.60005V12.2H8.00005ZM12.2 7.39995H11.6V9.79995H10.4V12.2H9.20005V14.6H11.6V12.2H12.8V9.79995H14V7.39995H14.6V4.99995H12.2V7.39995Z" fill="white"/>
<path d="M27.2094 9.79995H28.4094V7.39995H27.2094V4.99995H20.0094V7.39995H26.0094V9.79995H24.8094V12.2H24.2094V14.6H25.4094V17H27.8094V14.6H26.6094V12.2H27.2094V9.79995ZM18.2094 14.6V9.79995H20.0094V7.39995H17.6094V9.79995H15.8094V14.6H17.0094V17H24.2094V14.6H18.2094Z" fill="white"/>
<path d="M42.2094 9.79995H43.4094V7.39995H42.2094V4.99995H35.0094V7.39995H41.0094V9.79995H39.8094V12.2H39.2094V14.6H40.4094V17H42.8094V14.6H41.6094V12.2H42.2094V9.79995ZM33.2094 14.6V9.79995H35.0094V7.39995H32.6094V9.79995H30.8094V14.6H32.0094V17H39.2094V14.6H33.2094Z" fill="white"/>
<path d="M57.2094 9.79995H58.4094V7.39995H57.2094V4.99995H50.0094V7.39995H56.0094V9.79995H54.8094V12.2H54.2094V14.6H55.4094V17H57.8094V14.6H56.6094V12.2H57.2094V9.79995ZM48.2094 14.6V9.79995H50.0094V7.39995H47.6094V9.79995H45.8094V14.6H47.0094V17H54.2094V14.6H48.2094Z" fill="white"/>
<path d="M75.8094 2.59995H73.4094V4.99995H64.4094V7.39995H62.6094V9.79995H63.2094V12.2H72.8094V9.79995H74.6094V7.39995H74.0094V4.99995H75.8094V2.59995ZM72.2094 9.79995H65.0094V7.39995H72.2094V9.79995ZM60.8094 17H59.0094V19.4H59.6094V21.8H71.6094V19.4H73.4094V17H72.8094V14.6H63.2094V12.2H60.8094V17ZM61.4094 17H71.0094V19.4H61.4094V17Z" fill="white"/>
<path d="M87.2141 4.99995H82.4141V7.39995H81.2141V4.99995H78.8141V7.39995H78.2141V9.79995H77.6141V12.2H77.0141V14.6H76.4141V17H78.8141V14.6H79.4141V12.2H80.0141V9.79995H83.0141V7.39995H85.4141V12.2H84.8141V14.6H84.2141V17H86.6141V14.6H87.2141V12.2H87.8141V7.39995H87.2141V4.99995ZM93.2141 4.99995H88.4141V7.39995H92.0141V12.2H91.4141V14.6H90.8141V17H93.2141V14.6H93.8141V12.2H94.4141V7.39995H93.2141V4.99995Z" fill="white"/>
<path d="M101.609 2.59995H104.009V0.199951H101.609V2.59995ZM98.0094 7.39995H99.8094V9.79995H99.2094V12.2H98.6094V14.6H98.0094V17H102.809V14.6H101.009V12.2H101.609V9.79995H102.209V7.39995H102.809V4.99995H98.0094V7.39995Z" fill="white"/>
<path d="M107.619 17V14.6H105.219V17H107.619Z" fill="white"/>
<path d="M123.223 2.59995H122.623V4.99995H122.023V7.39995H119.623V4.99995H114.823V7.39995H119.023V9.79995H120.823V12.2H117.823V14.6H119.623V17H122.023V14.6H122.623V12.2H123.223V9.79995H123.823V7.39995H124.423V4.99995H125.023V2.59995H125.623V0.199951H123.223V2.59995ZM111.223 9.79995V14.6H112.423V17H117.223V14.6H113.623V9.79995H114.823V7.39995H112.423V9.79995H111.223Z" fill="white"/>
<path d="M135.814 4.99995H128.614V7.39995H135.814V8.59995H134.614V9.79995H128.614V7.39995H126.214V9.79995H125.014V14.6H126.214V17H133.414V15.8H135.814V13.4H133.414V14.6H127.414V12.2H134.614V11H137.014V8.59995H138.214V6.19995H135.814V4.99995Z" fill="white"/>
<path d="M153.205 6.19995H150.805V4.99995H143.605V6.19995H141.205V8.59995H140.005V11H142.405V12.2H149.605V13.4H148.405V14.6H141.205V13.4H138.805V15.8H141.205V17H148.405V15.8H150.805V13.4H152.005V11H149.605V9.79995H142.405V8.59995H143.605V7.39995H150.805V8.59995H153.205V6.19995Z" fill="white"/>
<path d="M159.195 2.59995H161.595V0.199951H159.195V2.59995ZM155.595 7.39995H157.395V9.79995H156.795V12.2H156.195V14.6H155.595V17H160.395V14.6H158.595V12.2H159.195V9.79995H159.795V7.39995H160.395V4.99995H155.595V7.39995Z" fill="white"/>
<path d="M179.005 2.59995H176.605V4.99995H167.605V7.39995H165.805V9.79995H166.405V12.2H176.005V9.79995H177.805V7.39995H177.205V4.99995H179.005V2.59995ZM175.405 9.79995H168.205V7.39995H175.405V9.79995ZM164.005 17H162.205V19.4H162.805V21.8H174.805V19.4H176.605V17H176.005V14.6H166.405V12.2H164.005V17ZM164.605 17H174.205V19.4H164.605V17Z" fill="white"/>
<path d="M182.009 4.99995V7.39995H181.409V9.79995H180.809V12.2H180.209V14.6H179.609V17H182.009V14.6H182.609V12.2H183.209V9.79995H186.209V7.39995H184.409V4.99995H182.009ZM191.609 4.99995H186.809V7.39995H190.409V12.2H189.809V14.6H189.209V17H191.609V14.6H192.209V12.2H192.809V7.39995H191.609V4.99995Z" fill="white"/>
<path d="M75 20H160V22H75V20Z" fill="#EFFE09"/>
</svg>
