<svg width="206" height="203" viewBox="0 0 206 203" fill="none" xmlns="http://www.w3.org/2000/svg">
<rect width="15.2883" height="15.2883" transform="matrix(0.591203 0.806523 0.806523 -0.591203 62.5768 45.852)" fill="white"/>
<rect width="15.2883" height="15.2883" transform="matrix(0.591203 0.806523 0.806523 -0.591203 83.9453 49.1439)" fill="white"/>
<rect width="15.2883" height="15.2883" transform="matrix(0.591203 0.806523 0.806523 -0.591203 105.314 52.4363)" fill="white"/>
<rect width="15.2883" height="15.2883" transform="matrix(0.591203 0.806523 0.806523 -0.591203 126.683 55.7277)" fill="white"/>
<rect width="15.2883" height="15.2883" transform="matrix(0.591203 0.806523 0.806523 -0.591203 148.052 59.0196)" fill="white"/>
<rect width="15.2883" height="15.2883" transform="matrix(0.591203 0.806523 0.806523 -0.591203 135.722 68.0579)" fill="white"/>
<rect width="15.2883" height="15.2883" transform="matrix(0.591203 0.806523 0.806523 -0.591203 123.392 77.0968)" fill="white"/>
<rect width="15.2883" height="15.2883" transform="matrix(0.591203 0.806523 0.806523 -0.591203 111.061 86.1351)" fill="white"/>
<rect width="15.2883" height="15.2883" transform="matrix(0.591203 0.806523 0.806523 -0.591203 98.7306 95.1734)" fill="white"/>
<rect width="15.2883" height="15.2883" transform="matrix(0.591203 0.806523 0.806523 -0.591203 86.4003 104.212)" fill="white"/>
<rect width="15.2883" height="15.2883" transform="matrix(0.591203 0.806523 0.806523 -0.591203 74.0701 113.251)" fill="white"/>
<rect width="15.2883" height="15.2883" transform="matrix(0.591203 0.806523 0.806523 -0.591203 61.7393 122.289)" fill="white"/>
<rect width="15.2883" height="15.2883" transform="matrix(0.591203 0.806523 0.806523 -0.591203 49.4091 131.327)" fill="white"/>
<rect width="15.2883" height="15.2883" transform="matrix(0.591203 0.806523 0.806523 -0.591203 37.0789 140.366)" fill="white"/>
<rect width="15.2883" height="15.2883" transform="matrix(0.591203 0.806523 0.806523 -0.591203 144.76 80.3882)" fill="white"/>
<rect width="15.2883" height="15.2883" transform="matrix(0.591203 0.806523 0.806523 -0.591203 141.468 101.757)" fill="white"/>
<rect width="15.2883" height="15.2883" transform="matrix(0.591203 0.806523 0.806523 -0.591203 138.177 123.126)" fill="white"/>
<rect width="15.2883" height="15.2883" transform="matrix(0.591203 0.806523 0.806523 -0.591203 134.884 144.494)" fill="white"/>
</svg>
